<svg xmlns="http://www.w3.org/2000/svg" xmlns:xlink="http://www.w3.org/1999/xlink">
	<symbol id="twitter" viewBox="0 0 30 24">
		<path d="M26.7376 5.98123C26.7564 6.24372 26.7564 6.50626 26.7564 6.76875C26.7564 14.775 20.6626 24 9.52511 24C6.09384 24 2.90636 23.0062 0.225098 21.2813C0.712616 21.3375 1.18132 21.3563 1.68759 21.3563C4.5188 21.3563 7.12509 20.4 9.20635 18.7688C6.54384 18.7125 4.31258 16.9688 3.54382 14.5687C3.91885 14.625 4.29383 14.6625 4.68762 14.6625C5.23135 14.6625 5.77514 14.5874 6.28135 14.4563C3.50636 13.8937 1.42505 11.4562 1.42505 8.51249V8.43752C2.23127 8.88752 3.16885 9.16877 4.16252 9.20622C2.53127 8.1187 1.46256 6.26247 1.46256 4.16246C1.46256 3.03748 1.76251 2.00623 2.28754 1.10622C5.2688 4.78122 9.75008 7.18118 14.775 7.44372C14.6813 6.99372 14.625 6.52502 14.625 6.05626C14.625 2.71872 17.325 0 20.6813 0C22.425 0 24 0.731248 25.1063 1.9125C26.475 1.65001 27.7875 1.14374 28.95 0.450003C28.5 1.85628 27.5438 3.03754 26.2875 3.78748C27.5063 3.6563 28.6876 3.31872 29.775 2.85002C28.9502 4.04997 27.9189 5.11868 26.7376 5.98123Z" fill="currentColor"/>
	</symbol>
	<symbol id="facebook" viewBox="0 0 14 24">
		<path d="M12.5845 13.5L13.251 9.15656H9.08338V6.33797C9.08338 5.14969 9.66557 3.99141 11.5321 3.99141H13.4268V0.293438C13.4268 0.293438 11.7074 0 10.0635 0C6.63135 0 4.38791 2.08031 4.38791 5.84625V9.15656H0.572754V13.5H4.38791V24H9.08338V13.5H12.5845Z" fill="currentColor"/>
	</symbol>
	<symbol id="instagram" viewBox="0 0 24 24">
		<path d="M12.0029 5.8467C8.59691 5.8467 5.84962 8.594 5.84962 12C5.84962 15.406 8.59691 18.1533 12.0029 18.1533C15.4089 18.1533 18.1562 15.406 18.1562 12C18.1562 8.594 15.4089 5.8467 12.0029 5.8467ZM12.0029 16.0004C9.80187 16.0004 8.00247 14.2064 8.00247 12C8.00247 9.7936 9.79651 7.99955 12.0029 7.99955C14.2093 7.99955 16.0034 9.7936 16.0034 12C16.0034 14.2064 14.204 16.0004 12.0029 16.0004ZM19.8431 5.595C19.8431 6.39295 19.2005 7.03024 18.4079 7.03024C17.61 7.03024 16.9727 6.38759 16.9727 5.595C16.9727 4.80241 17.6153 4.15977 18.4079 4.15977C19.2005 4.15977 19.8431 4.80241 19.8431 5.595ZM23.9186 7.05166C23.8275 5.12909 23.3884 3.42608 21.9799 2.02298C20.5768 0.619882 18.8738 0.180743 16.9513 0.0843468C14.9698 -0.0281156 9.03069 -0.0281156 7.04922 0.0843468C5.132 0.175388 3.429 0.614526 2.02054 2.01763C0.612085 3.42073 0.178302 5.12373 0.0819054 7.0463C-0.030557 9.02778 -0.030557 14.9669 0.0819054 16.9483C0.172946 18.8709 0.612085 20.5739 2.02054 21.977C3.429 23.3801 5.12665 23.8193 7.04922 23.9157C9.03069 24.0281 14.9698 24.0281 16.9513 23.9157C18.8738 23.8246 20.5768 23.3855 21.9799 21.977C23.383 20.5739 23.8222 18.8709 23.9186 16.9483C24.031 14.9669 24.031 9.03314 23.9186 7.05166ZM21.3587 19.0744C20.941 20.1241 20.1323 20.9327 19.0773 21.3558C17.4975 21.9824 13.7488 21.8378 12.0029 21.8378C10.2571 21.8378 6.50297 21.977 4.9285 21.3558C3.87885 20.9381 3.07019 20.1294 2.64712 19.0744C2.02054 17.4946 2.16514 13.7458 2.16514 12C2.16514 10.2542 2.0259 6.50006 2.64712 4.92558C3.06484 3.87593 3.87349 3.06728 4.9285 2.6442C6.50833 2.01763 10.2571 2.16222 12.0029 2.16222C13.7488 2.16222 17.5029 2.02298 19.0773 2.6442C20.127 3.06192 20.9356 3.87058 21.3587 4.92558C21.9853 6.50541 21.8407 10.2542 21.8407 12C21.8407 13.7458 21.9853 17.4999 21.3587 19.0744Z" fill="currentColor"/>
	</symbol>
	<symbol id="linkedin" viewBox="0 0 24 24">
		<path d="M5.37226 24H0.396437V7.97643H5.37226V24ZM2.88167 5.79066C1.29056 5.79066 0 4.47278 0 2.88167C1.13885e-08 2.1174 0.303604 1.38444 0.844022 0.844022C1.38444 0.303604 2.1174 0 2.88167 0C3.64594 0 4.3789 0.303604 4.91932 0.844022C5.45974 1.38444 5.76334 2.1174 5.76334 2.88167C5.76334 4.47278 4.47224 5.79066 2.88167 5.79066ZM23.9952 24H19.0301V16.1998C19.0301 14.3409 18.9926 11.9569 16.443 11.9569C13.856 11.9569 13.4596 13.9766 13.4596 16.0659V24H8.48912V7.97643H13.2614V10.1622H13.331C13.9953 8.90323 15.618 7.57463 18.039 7.57463C23.0748 7.57463 24.0005 10.8908 24.0005 15.198V24H23.9952Z" fill="currentColor"/>
	</symbol>
	<symbol id="logo_mob" width="145" height="14" viewBox="0 0 145 14" fill="none">
		<path d="M6.274 8.08187C6.37194 8.26951 6.46124 8.46594 6.5419 8.67118C6.62832 8.87055 6.71186 9.07285 6.79251 9.27808C6.87317 9.06698 6.95671 8.85882 7.04313 8.65359C7.12955 8.44835 7.22173 8.25192 7.31967 8.06428L11.0184 1.01894C11.0645 0.930987 11.1106 0.860622 11.1567 0.807848C11.2085 0.755074 11.2632 0.716959 11.3209 0.693504C11.3842 0.670049 11.4534 0.655389 11.5283 0.649526C11.6032 0.643662 11.6925 0.64073 11.7962 0.64073H13.5505V13.3593H11.5023V5.14411C11.5023 4.99166 11.5052 4.82454 11.511 4.64276C11.5225 4.46098 11.5369 4.27627 11.5542 4.08863L7.77769 11.3011C7.69127 11.4653 7.57892 11.5943 7.44066 11.6881C7.30238 11.776 7.14107 11.82 6.95671 11.82H6.63696C6.4526 11.82 6.29129 11.776 6.15302 11.6881C6.01475 11.5943 5.9024 11.4653 5.81598 11.3011L1.98763 4.06225C2.01068 4.25575 2.02508 4.44632 2.03084 4.63396C2.04236 4.81574 2.04812 4.98579 2.04812 5.14411V13.3593H0V0.64073H1.7543C1.858 0.64073 1.9473 0.643662 2.0222 0.649526C2.0971 0.655389 2.16335 0.670049 2.22096 0.693504C2.28434 0.716959 2.34195 0.755074 2.3938 0.807848C2.44565 0.860622 2.49462 0.930987 2.54071 1.01894L6.274 8.08187Z" fill="currentColor"/>
		<path d="M35.6942 13.3593H33.8967C33.695 13.3593 33.528 13.3094 33.3954 13.2097C33.2687 13.1042 33.1765 12.9752 33.1189 12.8227L32.1856 10.228H27.0091L26.0758 12.8227C26.0297 12.9576 25.9375 13.0807 25.7992 13.1922C25.6667 13.3036 25.5025 13.3593 25.3067 13.3593H23.5005L28.4091 0.64073H30.7856L35.6942 13.3593ZM27.6054 8.55683H31.5893L30.0683 4.32612C29.9992 4.13848 29.9214 3.91858 29.835 3.66644C29.7543 3.40843 29.6737 3.12991 29.593 2.83085C29.5124 3.12991 29.4317 3.40843 29.351 3.66644C29.2762 3.92445 29.2013 4.1502 29.1264 4.34371L27.6054 8.55683Z" fill="currentColor"/>
		<path d="M46.8415 0.64073C46.9452 0.64073 47.0317 0.646594 47.1008 0.658321C47.1699 0.664185 47.2304 0.681777 47.2823 0.711095C47.3399 0.734551 47.3946 0.772666 47.4465 0.825439C47.4983 0.87235 47.5559 0.936851 47.6193 1.01894L54.1785 9.52436C54.1554 9.31912 54.1382 9.11976 54.1266 8.92625C54.1209 8.72688 54.118 8.54217 54.118 8.37212V0.64073H56.1661V13.3593H54.9649C54.7805 13.3593 54.6279 13.33 54.5069 13.2713C54.3859 13.2127 54.2678 13.1071 54.1526 12.9547L47.6193 4.48444C47.6366 4.67208 47.6481 4.85972 47.6539 5.04736C47.6654 5.22914 47.6711 5.39626 47.6711 5.54871V13.3593H45.623V0.64073H46.8415Z" fill="currentColor"/>
		<path d="M69.9475 13.3593H67.6142V0.64073H69.9475V13.3593Z" fill="currentColor"/>
		<path d="M89.2872 0.64073V2.523H83.7477V6.28755H88.423V8.17862H83.7477V13.3593H81.4058V0.64073H89.2872Z" fill="currentColor"/>
		<path d="M107.634 0.64073V2.523H102.095V6.05007H106.459V7.87077H102.095V11.4682H107.634V13.3593H99.7529V0.64073H107.634Z" fill="currentColor"/>
		<path d="M124.983 2.95399C124.92 3.08299 124.845 3.17388 124.758 3.22666C124.678 3.27943 124.58 3.30582 124.465 3.30582C124.349 3.30582 124.22 3.26184 124.076 3.17388C123.932 3.08006 123.762 2.97745 123.566 2.86603C123.37 2.75462 123.14 2.65494 122.875 2.56698C122.615 2.47316 122.307 2.42625 121.95 2.42625C121.627 2.42625 121.345 2.4673 121.103 2.54939C120.867 2.62562 120.665 2.7341 120.498 2.87483C120.337 3.01556 120.216 3.18561 120.135 3.38498C120.054 3.57848 120.014 3.79251 120.014 4.02706C120.014 4.32612 120.095 4.57533 120.256 4.77469C120.423 4.97406 120.642 5.14411 120.913 5.28484C121.184 5.42557 121.492 5.55165 121.837 5.66306C122.183 5.77447 122.535 5.89468 122.892 6.02368C123.255 6.14682 123.609 6.29341 123.955 6.46346C124.3 6.62765 124.609 6.83875 124.879 7.09675C125.15 7.34889 125.366 7.65968 125.528 8.02909C125.695 8.39851 125.778 8.84709 125.778 9.37483C125.778 9.94948 125.68 10.4889 125.484 10.9932C125.294 11.4917 125.012 11.9285 124.637 12.3038C124.269 12.6732 123.816 12.9664 123.281 13.1834C122.745 13.3945 122.131 13.5 121.44 13.5C121.042 13.5 120.651 13.459 120.265 13.3769C119.879 13.3006 119.507 13.1892 119.15 13.0426C118.798 12.896 118.467 12.7201 118.156 12.5149C117.851 12.3097 117.577 12.081 117.335 11.8288L118.009 10.6942C118.073 10.6121 118.147 10.5447 118.234 10.4919C118.326 10.4332 118.427 10.4039 118.536 10.4039C118.68 10.4039 118.836 10.4655 119.003 10.5886C119.17 10.7059 119.366 10.8378 119.591 10.9844C119.821 11.131 120.089 11.2659 120.394 11.389C120.705 11.5063 121.077 11.565 121.509 11.565C122.172 11.565 122.684 11.4066 123.047 11.09C123.41 10.7675 123.592 10.3072 123.592 9.70907C123.592 9.37483 123.508 9.10216 123.341 8.89107C123.18 8.67997 122.964 8.50406 122.693 8.36333C122.422 8.21673 122.114 8.09359 121.768 7.99391C121.423 7.89423 121.071 7.78575 120.714 7.66847C120.357 7.5512 120.005 7.41046 119.66 7.24628C119.314 7.08209 119.006 6.86806 118.735 6.60419C118.464 6.34032 118.245 6.01195 118.078 5.61908C117.917 5.22034 117.836 4.73072 117.836 4.1502C117.836 3.68696 117.926 3.23545 118.104 2.79567C118.289 2.35589 118.554 1.96594 118.899 1.62584C119.251 1.28575 119.68 1.01308 120.187 0.807848C120.694 0.602616 121.273 0.5 121.924 0.5C122.661 0.5 123.341 0.617275 123.963 0.851826C124.586 1.08638 125.116 1.41475 125.553 1.83694L124.983 2.95399Z" fill="currentColor"/>
		<path d="M145 0.64073V2.58457H141.241V13.3593H138.916V2.58457H135.14V0.64073H145Z" fill="currentColor"/>
	</symbol>
	<symbol id="logo" width="142" height="12" viewBox="0 0 142 12" fill="none">
		<path d="M13.2301 0.129905V11.8701H11.2304V4.28687C11.2304 3.98376 11.2473 3.65629 11.281 3.30447L7.5938 9.97023C7.41943 10.2896 7.15224 10.4493 6.79224 10.4493H6.47161C6.11161 10.4493 5.84442 10.2896 5.67004 9.97023L1.94064 3.28011C1.95751 3.45873 1.97158 3.63464 1.98283 3.80785C1.99408 3.98106 1.9997 4.14073 1.9997 4.28687V11.8701H0V0.129905H1.71282C1.81408 0.129905 1.90126 0.132611 1.97439 0.138024C2.04751 0.143436 2.1122 0.156968 2.16845 0.178619C2.23033 0.20027 2.28377 0.235453 2.32877 0.284168C2.37939 0.332882 2.4272 0.397834 2.47221 0.479025L6.12567 6.99865C6.22129 7.17185 6.30848 7.35047 6.38723 7.53451C6.47161 7.71854 6.55317 7.90798 6.63192 8.10284C6.71067 7.90257 6.79224 7.71042 6.87661 7.52639C6.96099 7.33694 7.05099 7.15562 7.14661 6.98241L10.7495 0.479025C10.7945 0.397834 10.8423 0.332882 10.8929 0.284168C10.9435 0.235453 10.997 0.20027 11.0532 0.178619C11.1151 0.156968 11.1826 0.143436 11.2557 0.138024C11.3288 0.132611 11.416 0.129905 11.5173 0.129905H13.2301Z" fill="currentColor"/>
		<path d="M30.8361 7.43708L29.3511 3.5318C29.278 3.35859 29.202 3.15291 29.1233 2.91475C29.0445 2.67659 28.9658 2.41949 28.887 2.14344C28.8139 2.41949 28.738 2.6793 28.6592 2.92287C28.5805 3.16103 28.5045 3.36942 28.4314 3.54804L26.9548 7.43708H30.8361ZM34.844 11.8701H33.0889C32.8921 11.8701 32.7318 11.8241 32.608 11.7321C32.4843 11.6346 32.3914 11.5156 32.3296 11.3748L31.4183 8.9797H26.3642L25.453 11.3748C25.408 11.4993 25.3208 11.613 25.1914 11.7158C25.062 11.8187 24.9017 11.8701 24.7105 11.8701H22.9386L27.7395 0.129905H30.0514L34.844 11.8701Z" fill="currentColor"/>
		<path d="M54.8298 0.129905V11.8701H53.6654C53.4854 11.8701 53.3335 11.843 53.2098 11.7889C53.0916 11.7294 52.9763 11.6319 52.8638 11.4966L46.4935 3.66982C46.5272 4.02706 46.5441 4.35724 46.5441 4.66035V11.8701H44.5444V0.129905H45.7341C45.8297 0.129905 45.9113 0.135317 45.9788 0.146143C46.0519 0.151555 46.1138 0.167794 46.1644 0.194857C46.2206 0.216509 46.2741 0.251691 46.3247 0.300405C46.3753 0.343707 46.4316 0.403247 46.4935 0.479025L52.8891 8.33829C52.8723 8.14885 52.8582 7.96211 52.8469 7.77808C52.8357 7.59405 52.8301 7.42354 52.8301 7.26658V0.129905H54.8298Z" fill="currentColor"/>
		<path d="M68.2625 11.8701H65.9844V0.129905H68.2625V11.8701Z" fill="currentColor"/>
		<path d="M81.7099 1.86739V5.34235H86.283V7.08796H81.7099V11.8701H79.4317V0.129905H87.1268V1.86739H81.7099Z" fill="currentColor"/>
		<path d="M99.7056 1.86739V5.12314H103.975V6.80379H99.7056V10.1245H105.123V11.8701H97.4275V0.129905H105.123V1.86739H99.7056Z" fill="currentColor"/>
		<path d="M122.068 2.26522C122.001 2.37889 121.928 2.46279 121.849 2.51691C121.776 2.56563 121.683 2.58999 121.571 2.58999C121.452 2.58999 121.323 2.54939 121.182 2.4682C121.047 2.3816 120.884 2.28687 120.693 2.18403C120.502 2.08119 120.277 1.98917 120.018 1.90798C119.765 1.82138 119.464 1.77808 119.115 1.77808C118.8 1.77808 118.525 1.81597 118.288 1.89174C118.052 1.96211 117.852 2.06225 117.689 2.19215C117.532 2.32206 117.414 2.47903 117.335 2.66306C117.256 2.84168 117.217 3.03924 117.217 3.25575C117.217 3.5318 117.296 3.76184 117.453 3.94587C117.616 4.1299 117.83 4.28687 118.094 4.41678C118.359 4.54668 118.66 4.66306 118.997 4.7659C119.335 4.86874 119.681 4.9797 120.035 5.09878C120.389 5.21245 120.735 5.34777 121.073 5.50474C121.41 5.65629 121.711 5.85115 121.976 6.08931C122.24 6.32206 122.451 6.60893 122.608 6.94993C122.772 7.29093 122.853 7.70501 122.853 8.19215C122.853 8.7226 122.757 9.22057 122.566 9.68606C122.381 10.1461 122.105 10.5494 121.739 10.8958C121.379 11.2368 120.938 11.5074 120.415 11.7077C119.892 11.9026 119.292 12 118.617 12C118.229 12 117.847 11.9621 117.47 11.8863C117.093 11.816 116.73 11.7131 116.382 11.5778C116.038 11.4425 115.715 11.2801 115.411 11.0907C115.107 10.9012 114.837 10.6901 114.601 10.4574L115.268 9.41001C115.324 9.33424 115.397 9.27199 115.487 9.22328C115.577 9.16915 115.673 9.14208 115.774 9.14208C115.915 9.14208 116.067 9.19892 116.23 9.31258C116.393 9.42084 116.587 9.54263 116.812 9.67794C117.037 9.81326 117.298 9.93775 117.597 10.0514C117.9 10.1597 118.263 10.2138 118.685 10.2138C119.332 10.2138 119.832 10.0677 120.187 9.77537C120.541 9.47767 120.718 9.05277 120.718 8.50068C120.718 8.19215 120.637 7.94046 120.474 7.7456C120.316 7.55074 120.105 7.38836 119.841 7.25846C119.577 7.12314 119.276 7.00947 118.938 6.91746C118.601 6.82544 118.257 6.7253 117.909 6.61705C117.56 6.5088 117.217 6.37889 116.879 6.22733C116.542 6.07578 116.241 5.87821 115.977 5.63464C115.712 5.39107 115.498 5.08796 115.335 4.7253C115.178 4.35724 115.099 3.90528 115.099 3.36942C115.099 2.94181 115.186 2.52503 115.361 2.11908C115.541 1.71313 115.799 1.35318 116.137 1.03924C116.474 0.725304 116.891 0.473613 117.386 0.284168C117.881 0.0947225 118.449 0 119.09 0C119.81 0 120.474 0.108254 121.081 0.324763C121.689 0.541271 122.206 0.844384 122.634 1.2341L122.068 2.26522Z" fill="currentColor"/>
		<path d="M141.793 1.92422H138.114V11.8701H135.844V1.92422H132.165V0.129905H141.793V1.92422Z" fill="currentColor"/>
	</symbol>
	<symbol id="cursor" width="29" height="27" viewBox="0 0 29 27" fill="none">
		<path d="M1.63689 1.00705C2.79277 0.245359 4.4469 0.604377 5.22552 1.78594L8.44482 6.67124C8.75209 5.32214 10.2882 4.16913 12.1189 4.69211C12.7752 3.25703 14.6436 2.87774 15.6981 3.48784C17.813 1.46442 19.8923 2.26398 21.5254 4.74227C21.6139 4.87662 21.9435 5.39835 22.0317 5.53137C24.0379 8.55794 22.991 10.295 24.1463 12.8203C24.4343 13.4497 24.218 14.1954 23.6401 14.5763L15.2481 20.1064L15.248 20.1063C14.349 20.6979 13.1501 20.7445 12.1851 20.1273C10.618 19.133 6.70968 17.0402 4.93499 17.3591C3.7934 17.5642 2.82258 17.2506 2.22199 16.34C1.11796 14.6661 2.07721 12.3829 4.07308 12.0243C4.59758 11.9301 5.15667 11.8935 5.74853 11.9133L0.937068 4.61193C0.181015 3.46462 0.497753 1.75772 1.63689 1.00705ZM15.0662 21.349L24.46 15.1587C25.1085 14.7314 25.9806 14.9106 26.408 15.5592L27.9555 17.9076C28.3829 18.5561 28.2036 19.4283 27.5551 19.8556L18.1613 26.0459C17.5128 26.4732 16.6407 26.294 16.2133 25.6455L14.6658 23.297C14.2384 22.6485 14.4177 21.7764 15.0662 21.349ZM24.1885 17.3024C23.6481 17.6586 23.4987 18.3853 23.8548 18.9258C24.2109 19.4662 24.9377 19.6156 25.4781 19.2595C26.0186 18.9033 26.168 18.1766 25.8118 17.6361C25.4557 17.0957 24.7289 16.9463 24.1885 17.3024Z" fill="currentColor"/>
	</symbol>
	<g id="search" width="18" height="16" viewBox="0 0 18 16" fill="none">
		<path fill-rule="evenodd" clip-rule="evenodd" d="M13.8942 11.0715L17.6712 14.6313C17.8399 14.8079 17.8316 15.0783 17.6524 15.2454L16.9914 15.8684C16.9027 15.9526 16.7821 16 16.6562 16C16.5303 16 16.4096 15.9526 16.3209 15.8684L12.5439 12.3085C12.4394 12.21 12.3446 12.1028 12.2606 11.9881L11.5524 11.0982C10.3806 11.9801 8.92549 12.4602 7.42595 12.4598C4.33594 12.4699 1.65084 10.461 0.960303 7.62231C0.269767 4.78365 1.75809 1.87288 4.54414 0.613257C7.3302 -0.646363 10.6704 0.0813446 12.5873 2.36555C14.5042 4.64977 14.4862 7.88086 12.5439 10.1459L13.4881 10.76C13.6356 10.849 13.7718 10.9535 13.8942 11.0715ZM2.70508 6.23017C2.70508 8.68773 4.81889 10.68 7.42641 10.68C8.67859 10.68 9.87948 10.2112 10.7649 9.37666C11.6503 8.54216 12.1477 7.41034 12.1477 6.23017C12.1477 3.77262 10.0339 1.78037 7.42641 1.78037C4.81889 1.78037 2.70508 3.77262 2.70508 6.23017Z" fill="currentColor"/>
	</g>
</svg>
